<mxfile host="app.diagrams.net" modified="2023-08-31T01:49:48.236Z" agent="Mozilla/5.0 (Windows NT 10.0; Win64; x64) AppleWebKit/537.36 (KHTML, like Gecko) Chrome/116.0.0.0 Safari/537.36" etag="ci9UGZTZzvqrdBT_ZQM1" version="21.7.1" type="github">
  <diagram id="C5RBs43oDa-KdzZeNtuy" name="Page-1">
    <mxGraphModel dx="1257" dy="637" grid="1" gridSize="10" guides="1" tooltips="1" connect="1" arrows="1" fold="1" page="1" pageScale="1" pageWidth="827" pageHeight="1169" math="0" shadow="0">
      <root>
        <mxCell id="WIyWlLk6GJQsqaUBKTNV-0" />
        <mxCell id="WIyWlLk6GJQsqaUBKTNV-1" parent="WIyWlLk6GJQsqaUBKTNV-0" />
        <mxCell id="a04sC6twnt1c6vh27Ohv-25" value="Lamp doesn&#39;t work" style="rounded=1;whiteSpace=wrap;html=1;fontSize=12;glass=0;strokeWidth=1;shadow=0;" vertex="1" parent="WIyWlLk6GJQsqaUBKTNV-1">
          <mxGeometry x="339" y="80" width="120" height="40" as="geometry" />
        </mxCell>
        <mxCell id="a04sC6twnt1c6vh27Ohv-26" value="kesimpulan dan saran" style="rounded=1;whiteSpace=wrap;html=1;fontSize=12;glass=0;strokeWidth=1;shadow=0;" vertex="1" parent="WIyWlLk6GJQsqaUBKTNV-1">
          <mxGeometry x="339" y="570" width="120" height="40" as="geometry" />
        </mxCell>
        <mxCell id="a04sC6twnt1c6vh27Ohv-27" value="" style="edgeStyle=orthogonalEdgeStyle;rounded=0;orthogonalLoop=1;jettySize=auto;html=1;" edge="1" parent="WIyWlLk6GJQsqaUBKTNV-1" source="a04sC6twnt1c6vh27Ohv-28" target="a04sC6twnt1c6vh27Ohv-26">
          <mxGeometry relative="1" as="geometry" />
        </mxCell>
        <mxCell id="a04sC6twnt1c6vh27Ohv-28" value="pengujian dan analisis" style="rounded=1;whiteSpace=wrap;html=1;fontSize=12;glass=0;strokeWidth=1;shadow=0;" vertex="1" parent="WIyWlLk6GJQsqaUBKTNV-1">
          <mxGeometry x="339" y="480" width="120" height="40" as="geometry" />
        </mxCell>
        <mxCell id="a04sC6twnt1c6vh27Ohv-29" value="" style="edgeStyle=orthogonalEdgeStyle;rounded=0;orthogonalLoop=1;jettySize=auto;html=1;" edge="1" parent="WIyWlLk6GJQsqaUBKTNV-1" source="a04sC6twnt1c6vh27Ohv-30" target="a04sC6twnt1c6vh27Ohv-34">
          <mxGeometry relative="1" as="geometry" />
        </mxCell>
        <mxCell id="a04sC6twnt1c6vh27Ohv-30" value="studi literatur" style="rounded=1;whiteSpace=wrap;html=1;fontSize=12;glass=0;strokeWidth=1;shadow=0;" vertex="1" parent="WIyWlLk6GJQsqaUBKTNV-1">
          <mxGeometry x="339" y="80" width="120" height="40" as="geometry" />
        </mxCell>
        <mxCell id="a04sC6twnt1c6vh27Ohv-31" style="edgeStyle=orthogonalEdgeStyle;rounded=0;orthogonalLoop=1;jettySize=auto;html=1;entryX=0.5;entryY=0;entryDx=0;entryDy=0;" edge="1" parent="WIyWlLk6GJQsqaUBKTNV-1" source="a04sC6twnt1c6vh27Ohv-32" target="a04sC6twnt1c6vh27Ohv-42">
          <mxGeometry relative="1" as="geometry" />
        </mxCell>
        <mxCell id="a04sC6twnt1c6vh27Ohv-32" value="evaluasi pengguna" style="rounded=1;whiteSpace=wrap;html=1;fontSize=12;glass=0;strokeWidth=1;shadow=0;" vertex="1" parent="WIyWlLk6GJQsqaUBKTNV-1">
          <mxGeometry x="499" y="330" width="120" height="40" as="geometry" />
        </mxCell>
        <mxCell id="a04sC6twnt1c6vh27Ohv-33" value="" style="edgeStyle=orthogonalEdgeStyle;rounded=0;orthogonalLoop=1;jettySize=auto;html=1;" edge="1" parent="WIyWlLk6GJQsqaUBKTNV-1" source="a04sC6twnt1c6vh27Ohv-34" target="a04sC6twnt1c6vh27Ohv-39">
          <mxGeometry relative="1" as="geometry" />
        </mxCell>
        <mxCell id="a04sC6twnt1c6vh27Ohv-34" value="pengumpulan data" style="rounded=1;whiteSpace=wrap;html=1;fontSize=12;glass=0;strokeWidth=1;shadow=0;" vertex="1" parent="WIyWlLk6GJQsqaUBKTNV-1">
          <mxGeometry x="339" y="160" width="120" height="40" as="geometry" />
        </mxCell>
        <mxCell id="a04sC6twnt1c6vh27Ohv-35" value="" style="edgeStyle=orthogonalEdgeStyle;rounded=0;orthogonalLoop=1;jettySize=auto;html=1;" edge="1" parent="WIyWlLk6GJQsqaUBKTNV-1" source="a04sC6twnt1c6vh27Ohv-36" target="a04sC6twnt1c6vh27Ohv-32">
          <mxGeometry relative="1" as="geometry" />
        </mxCell>
        <mxCell id="a04sC6twnt1c6vh27Ohv-36" value="pembuatan prototype" style="rounded=1;whiteSpace=wrap;html=1;fontSize=12;glass=0;strokeWidth=1;shadow=0;" vertex="1" parent="WIyWlLk6GJQsqaUBKTNV-1">
          <mxGeometry x="499" y="240" width="120" height="40" as="geometry" />
        </mxCell>
        <mxCell id="a04sC6twnt1c6vh27Ohv-37" value="" style="edgeStyle=orthogonalEdgeStyle;rounded=0;orthogonalLoop=1;jettySize=auto;html=1;" edge="1" parent="WIyWlLk6GJQsqaUBKTNV-1" source="a04sC6twnt1c6vh27Ohv-39" target="a04sC6twnt1c6vh27Ohv-40">
          <mxGeometry relative="1" as="geometry" />
        </mxCell>
        <mxCell id="a04sC6twnt1c6vh27Ohv-38" value="" style="edgeStyle=orthogonalEdgeStyle;rounded=0;orthogonalLoop=1;jettySize=auto;html=1;" edge="1" parent="WIyWlLk6GJQsqaUBKTNV-1" source="a04sC6twnt1c6vh27Ohv-39" target="a04sC6twnt1c6vh27Ohv-36">
          <mxGeometry relative="1" as="geometry" />
        </mxCell>
        <mxCell id="a04sC6twnt1c6vh27Ohv-39" value="perancangan sistem" style="rounded=1;whiteSpace=wrap;html=1;fontSize=12;glass=0;strokeWidth=1;shadow=0;" vertex="1" parent="WIyWlLk6GJQsqaUBKTNV-1">
          <mxGeometry x="339" y="240" width="120" height="40" as="geometry" />
        </mxCell>
        <mxCell id="a04sC6twnt1c6vh27Ohv-40" value="analisis kebutuhan pengguna" style="rounded=1;whiteSpace=wrap;html=1;fontSize=12;glass=0;strokeWidth=1;shadow=0;" vertex="1" parent="WIyWlLk6GJQsqaUBKTNV-1">
          <mxGeometry x="179" y="240" width="120" height="40" as="geometry" />
        </mxCell>
        <mxCell id="a04sC6twnt1c6vh27Ohv-41" value="" style="edgeStyle=orthogonalEdgeStyle;rounded=0;orthogonalLoop=1;jettySize=auto;html=1;" edge="1" parent="WIyWlLk6GJQsqaUBKTNV-1" source="a04sC6twnt1c6vh27Ohv-42" target="a04sC6twnt1c6vh27Ohv-28">
          <mxGeometry relative="1" as="geometry" />
        </mxCell>
        <mxCell id="a04sC6twnt1c6vh27Ohv-42" value="implementasi" style="rounded=1;whiteSpace=wrap;html=1;fontSize=12;glass=0;strokeWidth=1;shadow=0;" vertex="1" parent="WIyWlLk6GJQsqaUBKTNV-1">
          <mxGeometry x="339" y="400" width="120" height="40" as="geometry" />
        </mxCell>
      </root>
    </mxGraphModel>
  </diagram>
</mxfile>
